<svg xmlns="http://www.w3.org/2000/svg" xmlns:xlink="http://www.w3.org/1999/xlink" viewBox="0 0 900 253.21"><defs><style>.cls-1{isolation:isolate;}.cls-2{fill:#2962ff;}.cls-3{mix-blend-mode:multiply;fill:url(#radial-gradient);}.cls-4{fill:#fff;fill-rule:evenodd;}</style><radialGradient id="radial-gradient" cx="450" cy="0.61" r="258.4" gradientTransform="matrix(0, -1, -1.86, 0, 451.13, 450.61)" gradientUnits="userSpaceOnUse"><stop offset="0" stop-color="#2962ff" stop-opacity="0"/><stop offset="0.37" stop-color="#2962ff" stop-opacity="0.01"/><stop offset="0.51" stop-color="#2962ff" stop-opacity="0.03"/><stop offset="0.6" stop-color="#2962ff" stop-opacity="0.08"/><stop offset="0.68" stop-color="#2962ff" stop-opacity="0.15"/><stop offset="0.75" stop-color="#2962ff" stop-opacity="0.23"/><stop offset="0.81" stop-color="#2962ff" stop-opacity="0.34"/><stop offset="0.86" stop-color="#2962ff" stop-opacity="0.47"/><stop offset="0.91" stop-color="#2962ff" stop-opacity="0.61"/><stop offset="0.95" stop-color="#2962ff" stop-opacity="0.78"/><stop offset="0.99" stop-color="#2962ff" stop-opacity="0.96"/><stop offset="1" stop-color="#2962ff"/></radialGradient></defs><title>modal-top</title><g class="cls-1"><g id="Layer_2" data-name="Layer 2"><g id="Layer_1-2" data-name="Layer 1"><path class="cls-2" d="M450,253.21C682,253.21,675,90,900,0H0C225,90,218,253.21,450,253.21Z"/><path class="cls-3" d="M450,253.21C682,253.21,675,90,900,0H0C225,90,218,253.21,450,253.21Z"/><path class="cls-4" d="M442.79,163.09a8.51,8.51,0,0,1-3.4-2.73L414.5,128.95a8.76,8.76,0,0,1,1.9-12.85,9.46,9.46,0,0,1,7.14-1.82,9.63,9.63,0,0,1,6.46,3.51l16.32,20.64,41.21-63.09a9,9,0,0,1,6-4.09,9.7,9.7,0,0,1,7.34,1.23,8.84,8.84,0,0,1,4.35,5.71,8.38,8.38,0,0,1-1.22,7L455.3,159.72a22,22,0,0,1-3.26,3.12,7.94,7.94,0,0,1-4.66,1.17A9.63,9.63,0,0,1,442.79,163.09Z"/></g></g></g></svg>