<svg xmlns="http://www.w3.org/2000/svg" viewBox="0 0 56 61"><g fill="none"><path fill="#FFDD67" d="M0 28c0 15.5 12.5 28 28 28s28-12.5 28-28S43.5 0 28 0 0 12.5 0 28z"/><g fill="#917524" transform="translate(9 6)"><path d="M1.2 4c3.4-2 7.5-2.3 11.3-1 .5.2 1.3-1.7.7-1.9C8.9-.5 4.2-.1.2 2.2c-.6.3.5 2.1 1 1.8m24 3c3.4-2 7.5-2.3 11.3-1 .5.2 1.3-1.7.7-1.9-4.3-1.6-9-1.2-13 1.1-.6.3.5 2 1 1.8"/></g><path fill="#664E27" d="M20.1 32.7c5.1-1.3 10.7-.4 15 2.6 1.1.7-.9 3.5-2 2.7A15.5 15.5 0 0 0 21 35.9c-1.2.3-2.2-2.8-.9-3.2"/><path fill="#FFFFFF" d="M38.8 27.1c-4.1 0-7.5-3.4-7.5-7.5 0-1.7.6-3.3 1.5-4.5 1.7-.5 3.6-.7 5.6-.7 2.4 0 4.7.4 6.7 1.1.8 1.2 1.3 2.6 1.3 4.2-.1 4.1-3.4 7.4-7.6 7.4"/><path fill="#664E27" d="M39.8 14.4c.4.6.7 1.3.7 2.1 0 2.1-1.7 3.8-3.8 3.8a3.7 3.7 0 0 1-3.7-3.7c0-.6.1-1.1.4-1.6 1.5-.4 3.2-.6 5-.6h1.4"/><path fill="#FFFFFF" d="M17.2 27.1c-4.1 0-7.5-3.4-7.5-7.5 0-1.7.6-3.3 1.5-4.5 1.7-.5 3.6-.7 5.6-.7 2.4 0 4.7.4 6.7 1.1.8 1.2 1.3 2.6 1.3 4.2-.1 4.1-3.5 7.4-7.6 7.4"/><path fill="#664E27" d="M18.2 14.4c.4.6.7 1.3.7 2.1a3.8 3.8 0 1 1-7.6 0c0-.6.1-1.1.4-1.6 1.5-.4 3.2-.6 5-.6.6.1 1 .1 1.5.1"/><path fill="#FFFFFF" d="M28.6 42c-4.2 1-14.9 2.3-16.8.3-.9-.9-.7-2.2-.4-4.5.3-2.3-1.9-4.7-3.5-4.9-1.9-.2-3 1.2-2.3 3.2C7 40.6 4.2 42 4 45.3c-.1 1.9-.7 5.1 2.2 9.2 3.3 4.6 9 4.7 11 4.6 2.3-.1 3.3-.2 3.8-1.2.6-1.2.3-1.5.6-1.9.5-.9.8-.8 1.1-1.9.3-1.1-.5-1.8-.3-2.3.4-1.2 1.4-1 .4-3.8 3.4-.5 5.6-1 7.6-2.2 3.7-2 .5-4.3-1.8-3.8"/><path fill="#CCCFD4" d="M13.5 59.7c-3.4-.6-6.2-2.3-8-4.8-2.8-3.9-2.6-7-2.4-9.1v-.7c.1-1.4.5-2.5 1-3.6.7-1.6 1.3-2.9.5-5.3-.4-1.2-.3-2.4.5-3.2.7-.7 1.7-1.1 2.9-.9h.1c2.1.4 4.5 3.2 4.2 5.9-.3 2.2-.4 3.2.2 3.8.1.1.4.4 1.5.5 3.8.7 11.3-.4 14.4-1.1.5-.1 1.1-.1 1.7 0 1.5.3 2.6 1.2 2.9 2.3.1.7.1 2-2 3.2-2 1.1-4.1 1.7-7 2.1.8 2-1.1 2.7-.7 3.5.5 1.1.4 2-.7 3.1-.8.7.2 1.6-.6 3-.9 1.5-2.4 1.6-4.6 1.7-1.5-.1-2.7-.1-3.9-.4M5.9 35.2c.7 3.3.9 4.5-.3 7.2-1.8 3.6-2.5 13.8 8.2 15.7 6.5 1.2 7.5-.4 7.2-2.1-.2-1.1.7-1.5 1-1.9.7-1.2-.3-1.8-.3-2.3 0-.9.9-.9 1.1-1.8.3-1.6-1.7-2.2 0-2.3 3.3-.2 5.5-.8 7.4-2.1 1.8-1.2.5-3.7-1.9-3.2-5.6 1.2-14 2.6-16.8 0-1.3-1.2-.3-2.6-.4-5.3-.2-3.6-5.9-5-5.2-1.9"/></g></svg>